<svg version="1.1" id="psd-wizard-logo" xmlns="http://www.w3.org/2000/svg" xmlns:xlink="http://www.w3.org/1999/xlink" x="0px" y="0px" viewBox="0 0 443.5595703 59.3760529" xml:space="preserve"><g id="XMLID_1_"><path id="XMLID_2_" class="st0" d="M105.8535233,38.8958054h-2.7675781v7.2578125 c2.9921875,0.65625,4.8583984,1.4550781,5.5966797,2.3984375l-0.6152344,5.1044922H91.4619217l-0.6152344-5.1044922 c0.5322266-0.6972656,1.6611328-1.3730469,3.3828125-2.0302734V18.4153366 c-1.6816406-0.6152344-2.8085938-1.3115234-3.3828125-2.0908203l0.6152344-5.1044922h16.2978516 c5.6992188,0.0820313,9.953125,1.1171875,12.7626953,3.1054688c2.8076172,1.9892578,4.2128906,5.5253906,4.2128906,10.609375 C124.7353592,34.242485,118.4404373,38.8958054,105.8535233,38.8958054z M106.7763748,17.9231491h-3.6904297v14.2685547h4.1210938 c2.7871094,0,4.8681641-0.5527344,6.2421875-1.6601563c1.3730469-1.1074219,2.0605469-3.0234375,2.0605469-5.7509766 c0-2.7255859-0.7490234-4.5507813-2.2451172-5.4736328C111.7675858,18.3850632,109.6054764,17.9231491,106.7763748,17.9231491z"></path><path id="XMLID_5_" class="st0" d="M147.0595703,17.9231491c-1.3945313-0.3691406-2.8505859-0.5527344-4.3671875-0.5527344 c-1.5175781,0-2.7363281,0.3789063-3.6591797,1.1376953s-1.3837891,1.8242188-1.3837891,3.1982422 s0.3476563,2.4501953,1.0458984,3.2285156c0.6962891,0.7792969,2.0693359,1.4560547,4.1201172,2.0292969l5.4736328,1.5996094 c2.9521484,0.8603516,5.2988281,2.2041016,7.0419922,4.0283203c1.7421875,1.8242188,2.6142578,4.5,2.6142578,8.0263672 c0,4.1816406-1.5068359,7.4824219-4.5205078,9.9013672c-3.0136719,2.4199219-6.7558594,3.6289063-11.2246094,3.6289063 c-2.4599609,0-4.9921875-0.3183594-7.5947266-0.953125c-2.6044922-0.6357422-4.7666016-1.5273438-6.4892578-2.6757813 c0-0.2460938,0-0.7167969,0-1.4140625s0.1435547-1.8857422,0.4306641-3.5673828 c0.2861328-1.6806641,0.6972656-3.0537109,1.2304688-4.1210938h5.8427734 c0.6552734,1.2714844,1.0449219,2.9736328,1.1679688,5.1044922c1.4345703,0.6152344,3.1064453,0.9228516,5.0126953,0.9228516 s3.4746094-0.4501953,4.7050781-1.3525391c1.2304688-0.9013672,1.8447266-2.1933594,1.8447266-3.875 c0-0.7783203-0.0615234-1.4238281-0.1845703-1.9375c-0.1230469-0.5117188-0.5019531-1.0654297-1.1376953-1.6601563 c-0.6357422-0.59375-1.5478516-1.0761719-2.7363281-1.4453125l-6.3349609-1.8457031 c-6.4375-1.8447266-9.65625-5.9443359-9.65625-12.2998047c0-3.7304688,1.3535156-6.7138672,4.0595703-8.9492188 c2.7060547-2.234375,6.2421875-3.3515625,10.609375-3.3515625c4.3662109,0,8.640625,0.9833984,12.8232422,2.9521484 c0,0.2460938,0,0.7177734,0,1.4140625c0,0.6982422-0.1445313,1.8867188-0.4306641,3.5673828 c-0.2871094,1.6816406-0.6982422,3.0546875-1.2304688,4.1210938h-5.8427734 C147.5917969,21.7981491,147.1826172,20.1790085,147.0595703,17.9231491z"></path><path id="XMLID_7_" class="st0" d="M177.5039063,53.6565475h-15.6835938l-0.6152344-5.1044922 c0.5322266-0.6972656,1.6611328-1.3730469,3.3828125-2.0302734V18.4153366 c-1.6816406-0.6152344-2.8085938-1.3115234-3.3828125-2.0908203l0.6152344-5.1044922h13.7148438 c6.6015625,0,11.8398438,1.8447266,15.7138672,5.5351563c3.875,3.6894531,5.8125,9.1123047,5.8125,16.2675781 s-1.7529297,12.3828125-5.2587891,15.6826172C188.296875,52.0061569,183.53125,53.6565475,177.5039063,53.6565475z M173.4443359,46.952446h4.4287109c3.0742188,0,5.5039063-0.9316406,7.2880859-2.7978516 c1.7832031-1.8652344,2.6748047-5.4833984,2.6748047-10.8554688c0-10.25-3.875-15.3759766-11.6240234-15.3759766h-2.7675781 V46.952446z"></path><path id="XMLID_10_" class="st0" d="M240.6650391,30.6545944l-5.1660156,23.3095703h-9.4716797L216.1875,18.4153366 c-1.6816406-0.6152344-2.8095703-1.3115234-3.3828125-2.0908203l0.6152344-5.1044922h14.2070313l0.6152344,5.1044922 c-0.6982422,0.8203125-1.8046875,1.4970703-3.3212891,2.0292969l4.3662109,18.1435547 c0.6552734,2.6240234,1.1689453,5.2275391,1.5380859,7.8105469l0.1230469,1.0458984h0.8603516 c0.0410156-2.4189453,0.4306641-5.3300781,1.1689453-8.7333984l5.5351563-24.9697266h9.4101563l5.5351563,24.8466797 c0.6552734,2.9931641,1.1074219,5.5966797,1.3525391,7.8105469l0.1230469,1.1074219h0.8613281 c0.0820313-2.5009766,0.5742188-5.4326172,1.4765625-8.7949219l4.8583984-18.0205078 c-1.7226563-0.6152344-2.9121094-1.3730469-3.5673828-2.2753906l0.6152344-5.1044922h13.5917969l0.6152344,5.1044922 c-0.7792969,0.984375-2.1523438,1.7832031-4.1210938,2.3984375l-10.3320313,35.2412109h-9.65625l-4.9814453-23.2480469 c-0.5742188-2.7880859-1.0048828-5.5146484-1.2910156-8.1796875l-0.1230469-1.2304688h-0.8613281 C241.8544922,24.1350632,241.4033203,27.2512741,240.6650391,30.6545944z"></path><path id="XMLID_12_" class="st0" d="M289.8046875,11.2200241l0.6152344,5.1044922 c-0.65625,0.7792969-1.7832031,1.4755859-3.3828125,2.0908203v28.1064453 c1.6396484,0.6572266,2.7675781,1.3330078,3.3828125,2.0302734l-0.6152344,5.1044922h-14.3916016l-0.6152344-5.1044922 c0.5322266-0.6972656,1.6611328-1.3730469,3.3828125-2.0302734V18.4153366 c-1.6816406-0.6152344-2.8085938-1.3115234-3.3828125-2.0908203l0.6152344-5.1044922H289.8046875z"></path><path id="XMLID_14_" class="st0" d="M308.9316406,17.3704147h-5.7197266 c-0.2871094,2.2548828-0.7988281,4.0185547-1.5371094,5.2890625l-5.8427734-0.3691406 c-0.9023438-1.5576172-1.3535156-3.9765625-1.3535156-7.2578125c0-1.3935547,0.1435547-2.6640625,0.4306641-3.8125h29.9521484 l0.6152344,4.8583984L307.640625,42.8323288c-1.1074219,1.7216797-2.2558594,3.0751953-3.4443359,4.0585938l-0.6767578,0.4921875 l0.3076172,0.6767578c1.8857422-0.3691406,3.8945313-0.5537109,6.0273438-0.5537109h7.5029297 c0.2871094-2.2539063,0.7998047-4.0175781,1.5380859-5.2890625l5.8427734,0.3691406 c0.9013672,1.5585938,1.3525391,3.9775391,1.3525391,7.2568359c0,1.3945313-0.1435547,2.6660156-0.4296875,3.8134766h-31.7363281 l-0.6142578-4.8583984l17.8359375-26.7539063c1.1064453-1.7216797,2.2753906-3.0751953,3.5048828-4.0595703l0.6152344-0.4921875 l-0.3076172-0.6757813C313.0732422,17.1858444,311.0634766,17.3704147,308.9316406,17.3704147z"></path><path id="XMLID_16_" class="st0" d="M351.4306641,10.9124069l12.2382813,35.4873047 c1.7226563,0.6142578,2.9316406,1.3320313,3.6289063,2.1523438l-0.6152344,5.1044922h-14.3916016l-0.6142578-5.1044922 c0.4912109-0.6552734,1.4755859-1.2705078,2.9521484-1.8457031l-1.6611328-5.1660156h-12.3007813l-1.5371094,4.9814453 c1.4345703,0.5751953,2.5,1.2519531,3.1982422,2.0302734l-0.6152344,5.1044922h-14.0224609l-0.6152344-5.1044922 c0.7382813-0.9433594,2.1113281-1.7226563,4.1210938-2.3369141l11.8085938-35.3027344H351.4306641z M346.3251953,19.5227585 c0,2.5009766-0.5126953,5.4121094-1.5371094,8.7333984l-2.3984375,7.6259766h8.7949219l-2.3369141-7.5029297 c-0.9443359-2.8701172-1.4765625-5.4736328-1.5996094-7.8115234l-0.0615234-1.0449219H346.3251953z"></path><path id="XMLID_19_" class="st0" d="M402.3535156,23.6428757c0,2.7890625-0.8720703,5.1259766-2.6142578,7.0117188 c-1.7431641,1.8867188-3.9267578,3.3212891-6.5498047,4.3046875c2.0498047,0.8613281,3.4023438,1.9072266,4.0595703,3.1367188 l4.4892578,8.5488281c1.9267578,0.6572266,3.2382813,1.4150391,3.9365234,2.2763672l-0.6152344,4.7353516h-10.3945313 l-7.0722656-15.0683594c-0.65625-1.5166016-1.4150391-2.2753906-2.2753906-2.2753906h-3.9980469v9.8408203 c2.9921875,0.65625,4.8583984,1.4550781,5.5966797,2.3984375l-0.6152344,5.1044922h-16.6054688l-0.6152344-5.1044922 c0.5322266-0.6972656,1.6611328-1.3730469,3.3828125-2.0302734V18.4153366 c-1.6816406-0.6152344-2.8085938-1.3115234-3.3828125-2.0908203l0.6152344-5.1044922h15.6835938 c5.7392578,0.0820313,10.0039063,1.0048828,12.7919922,2.7675781S402.3535156,18.9690475,402.3535156,23.6428757z M384.9482422,17.9231491h-3.6289063V29.608696h3.5058594c2.7880859,0,4.8681641-0.4199219,6.2421875-1.2607422 c1.3730469-0.8398438,2.0605469-2.3466797,2.0605469-4.5205078c0-2.1728516-0.6972656-3.6992188-2.0908203-4.5820313 C389.6425781,18.3645554,387.6132813,17.9231491,384.9482422,17.9231491z"></path><path id="XMLID_22_" class="st0" d="M424.0019531,53.6565475h-15.6835938l-0.6152344-5.1044922 c0.5322266-0.6972656,1.6611328-1.3730469,3.3828125-2.0302734V18.4153366 c-1.6816406-0.6152344-2.8085938-1.3115234-3.3828125-2.0908203l0.6152344-5.1044922h13.7148438 c6.6015625,0,11.8398438,1.8447266,15.7138672,5.5351563c3.875,3.6894531,5.8125,9.1123047,5.8125,16.2675781 s-1.7529297,12.3828125-5.2587891,15.6826172C434.7949219,52.0061569,430.0292969,53.6565475,424.0019531,53.6565475z M419.9423828,46.952446h4.4287109c3.0742188,0,5.5039063-0.9316406,7.2880859-2.7978516 c1.7832031-1.8652344,2.6748047-5.4833984,2.6748047-10.8554688c0-10.25-3.875-15.3759766-11.6240234-15.3759766h-2.7675781 V46.952446z"></path></g><polygon id="XMLID_1155_" class="st0" points="29.3584518,8.6657715 4.3897009,8.6657715 -0.0000084,15.0800781 13.6675329,36.2895508 20.8124924,31.6853027 11.4560461,17.1657715 29.3584518,17.1657715 "></polygon><polygon id="XMLID_1149_" class="st0" points="41.9999924,53.6562881 66.9687424,53.6562881 71.3584518,47.2419815 57.6909103,26.0325108 50.5459518,30.6367588 59.9023972,45.1562881 41.9999924,45.1562881 "></polygon><g id="XMLID_1150_"><polygon id="XMLID_1162_" class="st0" points="54.097702,14.6837616 55.0646858,16.2325306 55.1305122,14.4078655 56.6792221,13.4409008 54.8546333,13.3751163 53.8876534,11.8263464 53.8218231,13.6510124 52.273098,14.6179171 "></polygon><g id="XMLID_1151_"><polygon id="XMLID_1161_" class="st0" points="48.7882881,5.7148304 50.7222519,8.8123684 50.8539085,5.1630373 53.9513283,3.2291076 50.3021469,3.0975387 48.368187,0 48.2365303,3.6493316 45.13908,5.5831404 "></polygon><polygon id="XMLID_1160_" class="st0" points="39.0902214,6.339407 40.0408974,7.8620639 40.1056175,6.0681624 41.628212,5.1175008 39.8343887,5.0528255 38.883709,3.530169 38.8189926,5.3240705 37.2963791,6.2746725 "></polygon><path id="XMLID_1157_" class="st0" d="M49.8609581,12.0793114l-5.0070877-2.895937 c-0.3034134-0.1756001-0.6346436-0.215415-0.9940071-0.1194172c-0.359581,0.096056-0.6265297,0.2956629-0.8020401,0.5991983 L24.2490997,42.1833153c-0.1758022,0.3037605-0.2152424,0.6351852-0.1192818,0.9944115 c0.0959988,0.3593636,0.2953053,0.6263924,0.5991726,0.8020477l5.0068893,2.8956947 c0.303854,0.175602,0.6347961,0.215435,0.9942131,0.1194229c0.3590889-0.0959244,0.6265774-0.295002,0.8020115-0.5992508 L50.340992,13.8752031c0.1753731-0.3037052,0.2146111-0.6345758,0.1185989-0.9939928 C50.3636818,12.5221758,50.1645851,12.2546196,49.8609581,12.0793114z M43.4393501,22.224062l-4.2771416-2.4737511 l4.8626404-8.4075451l4.2771645,2.473774L43.4393501,22.224062z"></path><path id="XMLID_1156_" class="st0" d="M32.7389336,44.3237953l-8.4168587,14.5527802 c-0.2765083,0.4780846-0.8882217,0.6414909-1.3663044,0.3649864l-5.5479565-3.2087593 c-0.4780827-0.2765045-0.6414909-0.8882217-0.3649826-1.3663025l8.4168587-14.552784 c0.2765083-0.4780846,0.8882236-0.6414909,1.3663044-0.3649864l5.5479565,3.2087593 C32.8520317,43.2339973,33.0154419,43.8457108,32.7389336,44.3237953z"></path></g></g></svg>